Coordinates
version=1
nRows=14
nColumns=40
inDegrees=yes

Units are S.I. units (second, meters, Newtons, ...)
If the header above contains a line with 'inDegrees', this indicates whether rotational values are in degrees (yes) or radians (no).

endheader
time	pelvis_tilt	pelvis_list	pelvis_rotation	pelvis_tx	pelvis_ty	pelvis_tz	hip_flexion_r	hip_adduction_r	hip_rotation_r	knee_angle_r	knee_angle_r_beta	ankle_angle_r	subtalar_angle_r	mtp_angle_r	hip_flexion_l	hip_adduction_l	hip_rotation_l	knee_angle_l	knee_angle_l_beta	ankle_angle_l	subtalar_angle_l	mtp_angle_l	lumbar_extension	lumbar_bending	lumbar_rotation	arm_flex_r	arm_add_r	arm_rot_r	elbow_flex_r	pro_sup_r	wrist_flex_r	wrist_dev_r	arm_flex_l	arm_add_l	arm_rot_l	elbow_flex_l	pro_sup_l	wrist_flex_l	wrist_dev_l
      1.50000000	    -18.22829468	     -0.09701006	      1.04049888	      0.99049772	      1.06000897	     -0.35416907	     47.02938922	     -0.58093215	     -3.37379945	     28.25966138	      0.49322414	     -1.28504350	      0.00000000	      0.00000000	     -6.46284907	      5.11440630	      7.77431838	     29.02383410	      0.50656147	    -31.23990480	      0.00000000	      0.00000000	      8.97169745	      3.11154469	    -13.48522942	    -51.62343209	    -21.56446341	    -14.90503070	    110.84056035	     59.58765597	      0.00000000	      0.00000000	    -29.37211936	    -14.76908612	     -5.74349757	    137.53816947	     55.81181875	      0.00000000	      0.00000000
      1.51000000	    -17.74751788	     -0.00481736	      0.87254065	      0.98985610	      1.05909582	     -0.35407971	     45.14264494	      0.22863080	     -2.23933025	     23.19501340	      0.40482935	     -1.35942309	      0.00000000	      0.00000000	     -5.92379751	      5.50005940	      8.45855903	     34.39829885	      0.60036357	    -30.11951914	      0.00000000	      0.00000000	      8.17146869	      3.30413862	    -13.16461474	    -51.34482320	    -21.33240694	    -15.07281477	    111.57170389	     59.50206953	      0.00000000	      0.00000000	    -29.38488991	    -15.10197804	     -5.07266983	    136.79224469	     55.61410170	      0.00000000	      0.00000000
      1.52000000	    -17.44007678	     -0.67181718	      0.49350161	      0.98944405	      1.05714029	     -0.35348578	     43.16949691	      1.74128164	     -1.20745829	     18.32215007	      0.31978184	     -2.19038225	      0.00000000	      0.00000000	     -4.87606217	      4.84051172	      7.90431501	     40.44814387	      0.70595329	    -28.26107534	      0.00000000	      0.00000000	      7.63092819	      4.28654178	    -12.56536731	    -51.03479609	    -21.37972260	    -15.47770734	    112.08164600	     59.39629538	      0.00000000	      0.00000000	    -29.46008960	    -15.15379500	     -4.12881746	    135.72568061	     55.29357356	      0.00000000	      0.00000000
      1.53000000	    -16.77249009	     -0.24688294	      0.01940219	      0.98907546	      1.05449024	     -0.35326345	     41.87739672	      2.00751148	     -1.17061173	     16.60681124	      0.28984353	     -1.76003106	      0.00000000	      0.00000000	     -4.12950358	      5.31234084	      7.22763976	     46.00984154	      0.80302322	    -28.60140350	      0.00000000	      0.00000000	      6.57159737	      4.08961675	    -11.75221847	    -50.26464260	    -21.51481626	    -15.35362748	    112.36479019	     59.38638334	      0.00000000	      0.00000000	    -29.67135032	    -15.28013304	     -3.70711526	    134.25212992	     55.16533122	      0.00000000	      0.00000000
      1.54000000	    -16.67746151	     -1.59072771	      0.10186488	      0.98816360	      1.04987313	     -0.35252991	     40.32500843	      3.57201215	     -1.39098223	     13.73334185	      0.23969203	     -2.32004176	      0.00000000	      0.00000000	     -1.97606527	      3.25463974	      5.79783680	     53.49239412	      0.93361840	    -25.87940166	      0.00000000	      0.00000000	      6.38414863	      5.76276566	    -11.39569401	    -49.67757766	    -21.60143776	    -15.55736972	    112.91450078	     59.34157638	      0.00000000	      0.00000000	    -29.74164876	    -15.41245694	     -2.75071782	    132.84219550	     54.93721826	      0.00000000	      0.00000000
      1.55000000	    -15.91600871	     -0.95496912	     -0.41080111	      0.98756506	      1.04546948	     -0.35168116	     38.98803294	      3.48740369	     -1.92021206	     13.57722947	      0.23696736	     -1.99437237	      0.00000000	      0.00000000	     -0.97786407	      3.65609121	      4.93270785	     59.11410234	      1.03173572	    -26.20318227	      0.00000000	      0.00000000	      5.24839497	      5.26877073	    -10.29148224	    -48.53050777	    -21.75926142	    -15.30947491	    112.79082826	     59.33657819	      0.00000000	      0.00000000	    -30.15135606	    -15.63679345	     -2.45690753	    131.06897320	     54.86610074	      0.00000000	      0.00000000
      1.56000000	    -15.18207093	     -0.83187933	     -0.35448352	      0.98545335	      1.03996396	     -0.35075419	     37.63634352	      3.49399493	     -2.52260880	     14.02557169	      0.24479241	     -2.22486213	      0.00000000	      0.00000000	      0.78925884	      3.09122519	      3.96278363	     65.68122209	      1.14635358	    -25.30638433	      0.00000000	      0.00000000	      4.05329295	      5.04815273	     -9.60232551	    -46.98825810	    -21.82945216	    -14.87459118	    112.61857272	     59.33638236	      0.00000000	      0.00000000	    -29.99352043	    -16.08645751	     -2.07138678	    129.13902673	     54.82345602	      0.00000000	      0.00000000
      1.57000000	    -14.82743529	     -1.25503838	     -0.01655227	      0.98366028	      1.03288545	     -0.35046859	     36.76674882	      3.61874918	     -4.35712997	     15.51193562	      0.27073435	     -3.68787407	      0.00000000	      0.00000000	      3.05001539	      1.91571398	      3.56541733	     72.50649322	      1.26547704	    -22.32720167	      0.00000000	      0.00000000	      3.45864928	      5.61001783	     -9.06989112	    -45.42214012	    -22.09410713	    -14.39265031	    112.35486005	     59.33039119	      0.00000000	      0.00000000	    -29.87549549	    -16.42402612	     -1.42890136	    126.99729393	     54.84143842	      0.00000000	      0.00000000
      1.58000000	    -14.32062926	     -1.21079198	     -0.02788150	      0.98223711	      1.02539603	     -0.35043431	     35.59634605	      3.46897328	     -6.20477215	     17.39438862	      0.30358935	     -4.87779708	      0.00000000	      0.00000000	      5.06579263	      1.41988283	      3.08875411	     78.39284899	      1.36821332	    -20.29831338	      0.00000000	      0.00000000	      2.72204029	      5.59693324	     -8.11533031	    -44.00944584	    -22.58732660	    -14.13680571	    111.91388080	     59.28693428	      0.00000000	      0.00000000	    -30.10339137	    -16.53602415	     -0.89842958	    124.70910864	     54.83457892	      0.00000000	      0.00000000
      1.59000000	    -14.99783241	     -2.51047929	      0.70177261	      0.97975694	      1.01534761	     -0.35169327	     37.10645485	      3.51407909	    -11.05455872	     23.07521316	      0.40273845	     -4.67106156	      0.00000000	      0.00000000	      8.67738423	     -0.62569555	      3.53541769	     85.13353220	      1.48586044	    -13.89338092	      0.00000000	      0.00000000	      3.44846958	      7.28698019	     -7.83715745	    -42.80226151	    -23.48740879	    -13.71744903	    111.34332144	     59.18629520	      0.00000000	      0.00000000	    -30.13074874	    -16.51849024	      0.24691730	    121.58952186	     55.08178099	      0.00000000	      0.00000000
      1.60000000	    -15.14850619	     -2.85122851	      0.86950338	      0.97552486	      1.00674925	     -0.35253566	     38.04229556	      3.35193144	    -11.99174248	     28.77951386	      0.50229727	     -1.83184051	      0.00000000	      0.00000000	     12.09484775	     -1.28621248	      3.78779363	     90.86036766	      1.58581258	    -11.34596190	      0.00000000	      0.00000000	      3.12276224	      7.90420866	     -6.65761051	    -40.86770594	    -24.01315072	    -13.30593757	    110.38163536	     59.04109387	      0.00000000	      0.00000000	    -29.84406787	    -16.60718558	      0.88321959	    118.43831712	     55.32216315	      0.00000000	      0.00000000
      1.61000000	    -14.33368677	     -2.95500479	      0.42195708	      0.97249553	      1.00050180	     -0.35227325	     36.49554049	      3.88819574	    -11.46127465	     31.34683032	      0.54710540	     -0.71082071	      0.00000000	      0.00000000	     14.48096077	     -1.28437146	      4.27114488	     95.73540502	      1.67089803	    -11.11910177	      0.00000000	      0.00000000	      1.72534694	      8.17889131	     -4.82310572	    -38.80427919	    -24.25989459	    -13.05222576	    109.35504467	     58.96533612	      0.00000000	      0.00000000	    -30.06396439	    -16.42974196	      1.28769092	    116.00125908	     55.27873642	      0.00000000	      0.00000000
      1.62000000	    -14.00793587	     -3.84624108	      0.51357030	      0.96591863	      0.99331002	     -0.35306758	     37.70182389	      4.55657059	    -10.13310567	     39.13116976	      0.68296775	      4.68608341	      0.00000000	      0.00000000	     17.92297109	     -2.71874133	      4.70861432	    100.36170268	      1.75164215	     -8.59907668	      0.00000000	      0.00000000	      0.26775881	      9.59405032	     -3.35994411	    -35.42251887	    -25.25109654	    -12.20046826	    106.97019810	     58.79968834	      0.00000000	      0.00000000	    -28.61500197	    -16.37937966	      2.28226010	    111.02407537	     55.34768891	      0.00000000	      0.00000000
      1.63000000	    -14.81908528	     -2.57463875	      0.35688899	      0.96043936	      0.98545488	     -0.35372345	     38.54529464	      3.36697219	     -8.81492453	     43.81218954	      0.76466696	      9.32842499	      0.00000000	      0.00000000	     22.62999277	     -1.18496728	      4.70095295	    104.22067556	      1.81899394	     -6.30578644	      0.00000000	      0.00000000	      0.57077549	      8.34882250	     -1.73938854	    -32.67768985	    -25.72604554	    -10.86893635	    105.17386875	     58.59818596	      0.00000000	      0.00000000	    -28.40297365	    -16.65264179	      3.05261424	    107.48879752	     55.83265104	      0.00000000	      0.00000000
